<svg width="611.999" height="611.999" xmlns="http://www.w3.org/2000/svg">

 <g>
  <title>background</title>
  <rect fill="none" id="canvas_background" height="602" width="802" y="-1" x="-1"/>
 </g>
 <g>
  <title>Layer 1</title>
  <g id="svg_3"/>
  <g id="svg_4"/>
  <g id="svg_5"/>
  <g id="svg_6"/>
  <g id="svg_7"/>
  <g id="svg_8"/>
  <g id="svg_9"/>
  <g id="svg_10"/>
  <g id="svg_11"/>
  <g id="svg_12"/>
  <g id="svg_13"/>
  <g id="svg_14"/>
  <g id="svg_15"/>
  <g id="svg_16"/>
  <g id="svg_17"/>
  <g id="svg_23">
   <g stroke="null" id="svg_1">
    <path stroke="null" id="svg_2" d="m152.85712,611.19508c4.99349,3.178 10.26096,-3.704 7.20372,-9.4c-16.59429,-30.919 -32.30816,-82.947 -7.27222,-149.952c41.75051,-111.737 67.15566,-169.609 67.15566,-169.609s13.51282,67.536 50.14288,127.585c35.2543,57.793 54.55082,130.478 23.44217,191.029c-2.91941,5.683 2.22861,12.388 7.18952,9.349c38.50783,-23.582 81.69842,-70.885 86.57163,-165.017c1.79675,-28.764 -0.89796,-69.034 -14.37236,-119.851c-17.32518,-64.406 -38.62394,-94.459 -50.94728,-107.365c-3.68623,-3.861 -9.41897,-0.439 -9.11658,5.413c3.591,69.494 -18.24737,87.129 -30.67763,47.386c-4.96425,-15.874 -7.85944,-43.33 -7.85944,-76.766c0,-55.665 -13.49027,-112.967 -43.23152,-159.531c-7.73414,-12.109 -16.7839,-23.424 -27.16682,-33.073c-3.7589,-3.494 -9.20763,0.018 -8.86348,5.7c2.28374,37.736 0.21467,145.885 -79.04046,275.089c-71.86096,119.851 -44.01504,211.896 -34.13415,236.826c18.89139,47.759 45.24211,75.806 70.97637,92.187z"/>
   </g>
   <path stroke="#000" id="svg_21" d="m491.73385,304.99963l-78.98328,-127.00005l52.01672,0l78.98328,127.00005l-78.98328,126.99995l-52.01672,0l78.98328,-126.99995z" fill-opacity="null" stroke-opacity="null" stroke-width="25" fill="none"/>
  </g>
 </g>
</svg>