<svg width="230" height="230" xmlns="http://www.w3.org/2000/svg">
 <defs>
  <clipPath id="1">
   <path id="svg_1" d="m0,229l0,-229.87032l0,0l229.8703,0l0,0l0,229.87032l0,0l-229.8703,0z"/>
  </clipPath>
 </defs>
 <g>
  <title>background</title>
  <rect fill="none" id="canvas_background" height="232" width="232" y="-1" x="-1"/>
 </g>
 <g>
  <title>Layer 1</title>
  <g id="svg_2">
   <g id="svg_3" clip-path="url(#1)">
    <path id="svg_4" fill-rule="evenodd" fill="#AD081C" d="m224.6571,114.0648c0,-60.5977 -49.1242,-109.7219 -109.7219,-109.7219c-60.59778,0 -109.72195,49.1242 -109.72195,109.7219c0,60.59778 49.12417,109.72195 109.72195,109.72195c60.5977,0 109.7219,-49.12417 109.7219,-109.72195z"/>
    <path id="svg_5" fill-rule="evenodd" fill="#FF0000" d="m224.1285,114.0648c0,-60.3058 -48.8875,-109.1933 -109.1933,-109.1933c-60.30588,0 -109.19341,48.8875 -109.19341,109.1933c0,60.30588 48.88753,109.19341 109.19341,109.19341c60.3058,0 109.1933,-48.88753 109.1933,-109.19341zm5.7418,0c0,-63.4769 -51.4582,-114.9351 -114.9351,-114.9351c-63.47698,0 -114.9352,51.4582 -114.9352,114.9351c0,63.47698 51.45822,114.9352 114.9352,114.9352c63.4769,0 114.9351,-51.45822 114.9351,-114.9352z"/>
    <path id="svg_6" fill-rule="evenodd" fill="#000000" d="m150.2502,51.474c2.1894,-2.827 5.563,-4.4825 9.1386,-4.4846l0,0l16.8215,0c6.3876,-0.0003 11.5654,5.1784 11.564,11.566l0,0l0,53.2377c0.0021,6.388 -5.1763,11.5674 -11.5643,11.5663l0,0l-16.8202,0c-2.7669,-0.0011 -5.4418,-0.9941 -7.5391,-2.7988l0,0l-6.233,0c-0.7201,0.0471 -2.7269,2.097 -3.2839,2.7535c-4.8439,5.70912 -9.8992,16.80194 -12.864,24.53098c-1.9788,5.15868 -5.8748,8.68149 -10.216,11.85813c-1.5686,1.16986 -2.9035,2.62405 -3.935,4.28689c-3.4794,5.78744 -4.9099,17.29752 -5.2627,24.67537c-0.2332,4.87733 -4.6533,7.56581 -9.3469,7.55301c-6.18989,-0.01689 -13.21568,-3.53124 -16.89685,-8.8162c-2.99726,-4.45275 -4.63447,-9.68125 -4.71208,-15.04823c-0.25898,-5.38144 0.63461,-10.75611 2.62097,-15.76424l0,0l5.79429,-11.97512c0.61249,-1.33091 1.1461,-2.69673 1.59804,-4.09036c-8.20333,0.16958 -16.41006,0.05908 -24.60584,-0.33129c-2.50364,-0.11816 -6.87272,-0.69423 -9.18596,-1.53809c-2.06474,-0.93857 -3.93241,-2.26079 -5.5037,-3.89637l0,0l0.10642,0.1109c-3.6797,-3.72456 -8.0902,-10.47018 -7.8163,-16.17628c0.15607,-3.2512 2.44036,-5.831 4.23794,-8.3161l0,0l-2.42863,-4.1137c-1.00575,-1.7091 -1.62162,-3.6191 -1.80362,-5.5937c-0.28282,-4.3391 3.27747,-7.5941 5.7601,-10.6027l0,0l-1.65909,-4.27c-0.61197,-1.5312 -1.09992,-3.4358 -1.11741,-5.0836c0.11662,-2.5869 1.04789,-5.0708 2.66076,-7.0967l0,0l-0.1083,0.1358c1.02523,-1.3293 2.1596,-2.5707 3.3913,-3.7113c0.77174,-0.6851 1.48793,-1.4303 2.14182,-2.2286l0,0l-0.06106,-3.5494c-0.04458,-1.5638 0.1777,-3.4833 0.78224,-4.9222c1.91382,-4.555 9.08973,-11.3612 14.95401,-13.3283c4.77475,-1.6016 13.42194,-1.7596 18.47604,-1.8292c10.76788,0.0761 21.52781,0.6052 32.25121,1.5858l0,0l30.6647,5.7047z"/>
    <path id="svg_7" fill-rule="evenodd" fill="#FFFFFF" d="m52.741,111.0411c-0.30269,2.2934 -4.53051,5.692 -4.66284,8.0023c-0.24779,4.2067 5.43293,12.42858 9.33272,14.00679c4.54576,1.83917 22.69907,1.69912 32.05216,1.49385c1.11361,-0.02445 8.28221,1.37612 5.52945,7.17138c-1.7776,5.97735 -6.15144,13.22387 -7.73071,17.07191c-3.45911,8.40353 -2.87626,19.56225 1.49516,25.28662c5.34001,7.0013 15.14016,7.46871 15.34426,4.3334c1.4572,-22.71727 5.8075,-29.02027 11.6304,-33.51276c3.4985,-2.69465 6.5564,-5.05986 8.167,-9.168c9.9268,-25.27539 17.2801,-31.12639 21.4868,-31.12639c0,0 0.4467,0 0.9832,0c0.8064,0 2.0636,-1.7017 2.399,-4.5809c1.178,-10.1125 3.4343,-34.7509 -0.1881,-51.1986c-0.1247,-0.5661 -1.0098,-1.7827 -4.6469,-2.4593c-3.6372,-0.6767 -25.1643,-4.6814 -25.1643,-4.6814c0,0 -36.52273,-3.4591 -48.02215,0c-3.61821,1.084 -9.86066,6.517 -11.33892,10.0042c-0.8419,2.0006 0.32944,6.7423 -0.66592,8.6725c-1.47403,2.865 -7.67708,6.4508 -7.67144,10.3393c0.00563,2.7707 3.23948,7.5715 3.00296,10.3379c-0.23652,2.7665 -6.01157,6.5663 -6.00594,9.3384c0.0169,2.9086 5.05986,7.7813 4.67411,10.6688z"/>
    <path id="svg_8" fill-rule="evenodd" fill="#FFFFFF" d="m153.8112,58.052c0.2544,-2.8603 2.6598,-5.1021 5.581,-5.1021l0,0l16.8183,0c3.0959,0 5.6033,2.5088 5.6033,5.6047l0,0l0,53.2397c0,3.0973 -2.5074,5.6047 -5.6033,5.6047l0,0l-16.8183,0c-3.0902,0 -5.6033,-2.5074 -5.6033,-5.6047c0,0 0,-0.0003 0,-0.13c0,-0.1296 4.3378,-28.1355 0.0223,-53.6123z"/>
   </g>
  </g>
 </g>
</svg>