<svg width="230" height="230" xmlns="http://www.w3.org/2000/svg">
 <defs>
  <clipPath id="1">
   <path id="svg_1" d="m0,229l0,-229.870316l0,0l229.8703,0l0,0l0,229.870316l0,0l-229.8703,0z"/>
  </clipPath>
 </defs>
 <g>
  <title>background</title>
  <rect fill="none" id="canvas_background" height="232" width="232" y="-1" x="-1"/>
 </g>
 <g>
  <title>Layer 1</title>
  <g id="svg_2">
   <g id="svg_3" clip-path="url(#1)">
    <path id="svg_4" fill-rule="evenodd" fill="#14CB00" d="m224.6571,114.0648c0,-60.5977 -49.1242,-109.7219 -109.7219,-109.7219c-60.59778,0 -109.721946,49.1242 -109.721946,109.7219c0,60.59778 49.124166,109.721946 109.721946,109.721946c60.5977,0 109.7219,-49.124166 109.7219,-109.721946z"/>
    <path id="svg_5" fill-rule="evenodd" fill="#000000" d="m150.2502,176.65572c2.1894,2.82697 5.563,4.48252 9.1386,4.48454l0,0l16.8215,0c6.3876,0.00035 11.5654,-5.17842 11.564,-11.56593l0,0l0,-53.23773c0.0021,-6.388 -5.1763,-11.5674 -11.5643,-11.5663l0,0l-16.8202,0c-2.7669,0.0011 -5.4418,0.9941 -7.5391,2.7988l0,0l-6.233,0c-0.7201,-0.0471 -2.7269,-2.0971 -3.2839,-2.7535c-4.8439,-5.7091 -9.8992,-16.8019 -12.864,-24.531c-1.9788,-5.1587 -5.8748,-8.6815 -10.216,-11.8581c-1.5686,-1.1699 -2.9035,-2.6241 -3.935,-4.2869c-3.4794,-5.7874 -4.9099,-17.2975 -5.2627,-24.6754c-0.2332,-4.8773 -4.6533,-7.5658 -9.3469,-7.553c-6.18989,0.0169 -13.21568,3.5313 -16.89685,8.8162c-2.99726,4.4528 -4.63447,9.6813 -4.71208,15.0482c-0.25898,5.3815 0.63461,10.7562 2.62097,15.7643l0,0l5.79429,11.9751c0.61249,1.3309 1.1461,2.6967 1.59804,4.0904c-8.20333,-0.1696 -16.41006,-0.0591 -24.60584,0.3313c-2.50364,0.1181 -6.87272,0.6942 -9.18596,1.538c-2.06474,0.9386 -3.93241,2.2608 -5.5037,3.8964l0,0l0.10642,-0.1109c-3.6797,3.7246 -8.0902,10.4702 -7.8163,16.1762c0.15607,3.2513 2.44036,5.8311 4.23794,8.3162l0,0l-2.42863,4.1137c-1.00575,1.7091 -1.62162,3.6191 -1.80362,5.5937c-0.28282,4.3391 3.27747,7.59412 5.7601,10.60271l0,0l-1.65909,4.27002c-0.61197,1.53112 -1.09992,3.43575 -1.11741,5.08352c0.11662,2.58693 1.04789,5.07082 2.66076,7.09677l0,0l-0.1083,-0.13583c1.02523,1.3293 2.1596,2.57072 3.3913,3.71134c0.77174,0.68504 1.48793,1.43023 2.14182,2.22854l0,0l-0.06106,3.54945c-0.04458,1.56379 0.1777,3.48331 0.78224,4.92216c1.91382,4.55505 9.08973,11.36126 14.95401,13.32831c4.77475,1.60158 13.42194,1.7596 18.47604,1.82923c10.76788,-0.07614 21.52781,-0.60522 32.25121,-1.58582l0,0l30.6647,-5.70468z"/>
    <path id="svg_6" fill-rule="evenodd" fill="#FFFFFF" d="m52.741,117.0886c-0.30269,-2.2934 -4.53051,-5.692 -4.66284,-8.0023c-0.24779,-4.2067 5.43293,-12.4286 9.33272,-14.0068c4.54576,-1.8392 22.69907,-1.6991 32.05216,-1.4938c1.11361,0.0244 8.28221,-1.3762 5.52945,-7.1714c-1.7776,-5.9774 -6.15144,-13.2239 -7.73071,-17.0719c-3.45911,-8.4036 -2.87626,-19.5623 1.49516,-25.2867c5.34001,-7.0013 15.14016,-7.4687 15.34426,-4.3333c1.4572,22.7172 5.8075,29.0202 11.6304,33.5127c3.4985,2.6946 6.5564,5.0599 8.167,9.168c9.9268,25.2754 17.2801,31.1264 21.4868,31.1264c0,0 0.4467,0 0.9832,0c0.8064,0 2.0636,1.7017 2.399,4.5809c1.178,10.1125 3.4343,34.75085 -0.1881,51.19856c-0.1247,0.56615 -1.0098,1.78273 -4.6469,2.45937c-3.6372,0.67663 -25.1643,4.68139 -25.1643,4.68139c0,0 -36.52273,3.45912 -48.02215,0c-3.61821,-1.08405 -9.86066,-6.51699 -11.33892,-10.00426c-0.8419,-2.00058 0.32944,-6.74226 -0.66592,-8.67244c-1.47403,-2.86499 -7.67708,-6.45082 -7.67144,-10.33934c0.00563,-2.77067 3.23948,-7.57149 3.00296,-10.33793c-0.23652,-2.76646 -6.01157,-6.56628 -6.00594,-9.33835c0.0169,-2.9087 5.05986,-7.7813 4.67411,-10.6688z"/>
    <path id="svg_7" fill-rule="evenodd" fill="#FFFFFF" d="m153.8112,170.07772c0.2544,2.86033 2.6598,5.10211 5.581,5.10211l0,0l16.8183,0c3.0959,0 5.6033,-2.50881 5.6033,-5.60469l0,0l0,-53.23974c0,-3.0973 -2.5074,-5.6047 -5.6033,-5.6047l0,0l-16.8183,0c-3.0902,0 -5.6033,2.5074 -5.6033,5.6047c0,0 0,0.0003 0,0.13c0,0.1296 4.3378,28.13549 0.0223,53.61232z"/>
    <path id="svg_8" fill-rule="evenodd" fill="#75F250" d="m224.1285,114.0648c0,-60.3058 -48.8875,-109.1933 -109.1933,-109.1933c-60.30588,0 -109.193412,48.8875 -109.193412,109.1933c0,60.30588 48.887532,109.193412 109.193412,109.193412c60.3058,0 109.1933,-48.887532 109.1933,-109.193412zm5.7418,0c0,-63.4769 -51.4582,-114.9351 -114.9351,-114.9351c-63.47698,0 -114.9352,51.4582 -114.9352,114.9351c0,63.47698 51.45822,114.9352 114.9352,114.9352c63.4769,0 114.9351,-51.45822 114.9351,-114.9352z"/>
   </g>
  </g>
 </g>
</svg>